<?xml version="1.0" standalone="no"?>
<!DOCTYPE svg PUBLIC "-//W3C//DTD SVG 20010904//EN"
 "http://www.w3.org/TR/2001/REC-SVG-20010904/DTD/svg10.dtd">
<svg version="1.0" xmlns="http://www.w3.org/2000/svg"
 width="500.000000pt" height="500.000000pt" viewBox="0 0 500.000000 500.000000"
 preserveAspectRatio="xMidYMid meet">
<metadata>
Created by potrace 1.14, written by Peter Selinger 2001-2017
</metadata>
<g transform="translate(0.000000,500.000000) scale(0.100000,-0.100000)"
fill="#000000" stroke="none">
<path d="M328 4993 c0 -5 -2 -15 -2 -23 -1 -8 -7 -14 -14 -12 -7 1 -12 -5 -12
-13 0 -25 -47 -64 -70 -58 -16 4 -19 2 -14 -11 3 -9 11 -13 18 -9 6 4 4 -1 -4
-11 -17 -21 -19 -48 -5 -58 5 -4 7 -9 4 -13 -3 -3 -14 5 -25 17 -10 12 -13 18
-5 13 11 -6 13 -4 8 7 -3 9 0 22 6 29 10 11 9 11 -5 0 -10 -7 -18 -10 -18 -5
0 4 -10 -2 -23 -14 -13 -12 -26 -20 -29 -17 -3 3 -11 -3 -19 -12 -7 -10 -9
-15 -4 -10 4 4 17 -1 28 -10 19 -17 20 -17 15 5 -4 14 -2 20 4 15 7 -3 8 -1 4
5 -4 7 -3 12 2 12 6 0 13 -7 16 -16 3 -8 2 -12 -4 -9 -6 3 -10 -1 -10 -9 0 -8
-9 -20 -20 -26 -11 -6 -18 -15 -15 -20 3 -5 1 -11 -5 -15 -6 -4 -8 -10 -5 -15
3 -4 -3 -7 -12 -6 -10 2 -28 -3 -40 -11 -17 -11 -22 -12 -26 -1 -3 8 -6 5 -6
-7 -1 -16 -3 -17 -10 -5 -6 8 -7 18 -5 22 3 4 -2 5 -11 1 -12 -4 -13 -8 -4
-13 6 -5 9 -15 6 -24 -3 -8 -1 -18 5 -22 7 -5 8 -2 3 6 -5 8 -4 11 3 6 6 -4 8
-14 5 -23 -4 -11 -8 -13 -11 -5 -2 7 -8 10 -13 7 -5 -4 -9 -986 -9 -2320 l0
-2315 2500 0 2500 0 0 2500 0 2500 -2305 0 -2305 0 0 -21 c0 -11 -4 -18 -10
-14 -5 3 -6 13 -3 23 6 15 5 15 -11 3 -9 -8 -14 -21 -11 -30 5 -13 3 -13 -12
2 -16 15 -16 19 -3 27 10 7 11 10 3 10 -7 0 -14 -3 -15 -7z m79 -62 c0 -11 -5
-18 -9 -15 -4 3 -5 11 -1 19 7 21 12 19 10 -4z m-137 -75 c0 -2 -7 -7 -16 -10
-8 -3 -12 -2 -9 4 6 10 25 14 25 6z m-40 -111 c0 -12 -19 -12 -23 0 -4 9 -1
12 9 8 7 -3 14 -7 14 -8z m-160 -85 c-6 -11 -13 -20 -16 -20 -2 0 0 9 6 20 6
11 13 20 16 20 2 0 0 -9 -6 -20z m2685 -516 c734 -111 1315 -669 1430 -1374
45 -272 23 -529 -67 -795 -83 -246 -211 -449 -405 -642 -705 -699 -1894 -647
-2531 112 -257 306 -392 672 -392 1062 0 437 187 869 509 1176 392 373 924
541 1456 461z"/>
<path d="M2467 3908 c-37 -198 -114 -425 -218 -646 -28 -62 -50 -113 -48 -115
2 -1 60 -30 130 -64 69 -34 175 -95 236 -135 l111 -74 23 35 c13 19 92 103
174 186 210 212 364 328 568 426 56 27 108 49 115 49 20 0 12 12 -33 52 -175
154 -461 295 -695 342 -77 15 -257 36 -314 36 l-32 0 -17 -92z"/>
<path d="M2230 3974 c-308 -49 -605 -201 -833 -427 -69 -69 -197 -223 -197
-238 0 -2 100 -4 223 -4 172 0 242 -4 312 -18 83 -17 255 -60 290 -73 19 -8
112 183 179 370 47 128 110 365 104 389 -2 11 -18 11 -78 1z"/>
<path d="M3585 3407 c-156 -65 -297 -156 -466 -302 -92 -79 -309 -309 -309
-327 0 -5 48 -55 106 -110 188 -180 339 -386 449 -613 94 -194 147 -379 170
-597 4 -32 10 -58 14 -58 12 0 119 115 182 195 129 162 205 316 264 525 35
126 48 229 48 380 0 196 -28 348 -98 533 -64 171 -215 407 -260 407 -11 0 -56
-15 -100 -33z"/>
<path d="M1270 3139 c-41 -5 -100 -15 -130 -22 l-55 -12 -28 -69 c-67 -168
-99 -343 -99 -540 1 -117 22 -310 37 -324 16 -16 270 132 380 221 83 68 215
197 295 287 125 143 289 373 272 384 -17 10 -172 47 -257 61 -116 19 -320 26
-415 14z"/>
<path d="M2061 2928 c-24 -39 -83 -123 -131 -187 -236 -316 -506 -553 -780
-685 l-107 -52 13 -36 c23 -68 116 -239 171 -315 150 -210 330 -363 563 -482
93 -48 276 -118 285 -110 2 3 -1 38 -7 79 -13 93 -4 322 17 450 59 348 210
724 424 1049 33 51 61 97 61 102 0 24 -411 259 -453 259 -7 0 -32 -32 -56 -72z"/>
<path d="M2631 2527 c-147 -228 -283 -539 -346 -787 -57 -226 -75 -477 -46
-641 16 -90 5 -84 182 -95 263 -15 546 44 783 163 153 77 163 85 171 140 9 67
-11 249 -41 368 -74 295 -239 577 -488 833 -39 41 -87 87 -107 103 l-36 29
-72 -113z"/>
<path d="M183 4885 c0 -8 4 -12 9 -9 4 3 8 9 8 15 0 5 -4 9 -8 9 -5 0 -9 -7
-9 -15z"/>
<path d="M115 4761 c-3 -6 -14 -8 -25 -6 -19 4 -19 2 -4 -21 9 -13 18 -24 19
-24 2 0 10 14 19 30 13 27 6 44 -9 21z"/>
</g>
</svg>
